<svg xmlns="http://www.w3.org/2000/svg" viewBox="0 0 41.82 94.59"><defs><style>.cls-1{fill:#ca679f;}</style></defs><g id="Layer_2" data-name="Layer 2"><g id="World_Map" data-name="World Map"><path class="cls-1" d="M34.07,24.54l.64-.56.86-1,.3-1.2a.36.36,0,0,1,0-.09l.6-.8.2-1a.23.23,0,0,1,.12-.17l.76-.42,0,0,1-.3a10.57,10.57,0,0,1,1.17-.8,3,3,0,0,0,.72-1,13.79,13.79,0,0,1,.6-1.33,1.14,1.14,0,0,1,.52-.41l.18-.1a4.8,4.8,0,0,1-.11-.71c0-.09,0-.41,0-.69a4,4,0,0,0-.2-.78l-.4-.92-.73-.2-.07,0a2.37,2.37,0,0,0-.44-.23,1.14,1.14,0,0,1-.26,0l-.11.35.08,1.64v.06L39.29,15a.19.19,0,0,1-.07.11l-.69.71-.89.74-.63.92-.18.37s0,0,0,0l-.06.12a.25.25,0,0,1-.22.14.2.2,0,0,1-.11,0,.24.24,0,0,1-.14-.21.2.2,0,0,1,0-.11l.06-.12a.29.29,0,0,0-.09-.34l-1.3.47h-.07l-.55,0-1.1-.07c-.1,0-.84-.15-1.09-.22s-1.38-.25-2.12-.37l-.26,0c-.14,0-.84.07-1.11-.25a.51.51,0,0,1-.09-.48,1.62,1.62,0,0,1,.68-.86l.36-.67a2.93,2.93,0,0,0,0-.52,2.1,2.1,0,0,0-.15-.31c-.14-.24-.29-.5-.18-.73a.42.42,0,0,1,.3-.22,1.63,1.63,0,0,0,.68-.51l.17-.48-.07-.93-.29-1a1,1,0,0,0-.71-.37,5.53,5.53,0,0,1-1.66-.6L27.12,9,27,9l-.9-1-1.06-.29-.07,0-.42-.28-1-.5-.69-.06a1.17,1.17,0,0,1-.4-.09L22,6.51l-.69-.3a.18.18,0,0,1-.07,0l-.48-.48-.54-.4-1.08-.74-1.49-.76a.26.26,0,0,1-.13-.23V2.76l-.25-.41L16.9,2l-.82-.56s0,0,0,0a.08.08,0,0,1,0,0l0,0s0,0,0,0-.44-.53-.8-.94l-.69.33-.11,0h-.61L13,.63a.81.81,0,0,0-.35.12c-.06.19-.33.94-.33.94a.21.21,0,0,1-.12.14,1.69,1.69,0,0,0-.07.39c-.1.89-.17,1.06-.35,1.12a.33.33,0,0,1-.29-.06,1.38,1.38,0,0,1-.47-1,2.4,2.4,0,0,0-.26-.9,1.91,1.91,0,0,0-.68-.4A8,8,0,0,0,8.86.86l-1,0a1,1,0,0,1-.6-.27L7.05.46A3.78,3.78,0,0,0,6.61.13L6.44,0V.1c0,.3,0,.66-.35.79a.36.36,0,0,1-.33,0L5.63,1a3.18,3.18,0,0,1-.87,1s0,.08-.08.17a1.31,1.31,0,0,1-.14.3.93.93,0,0,1-.3.29l.53.51a.21.21,0,0,1,.07.13c.26,1.35,0,1.52-.11,1.58a4.51,4.51,0,0,0-.67.81,3.46,3.46,0,0,1-.62.92A4.1,4.1,0,0,1,2.87,7,5.26,5.26,0,0,0,2,7.33c-.1.15-.64.87-.81,1.1v2.46l.49,1.75.19,1.51.36,1.32s0,0,0,0l.06,1.23a.27.27,0,0,1-.09.21L.9,18,.75,19.8a.15.15,0,0,1,0,.07L0,21.81l1.33,5.06a.24.24,0,0,1-.11.27,1.2,1.2,0,0,0-.47.45c-.09.27-.58,1.6-.71,2l.48,1.29L2,33.52l1.53,2.24.68,1.55a.2.2,0,0,1,0,.17l-.5,1.66-.22,1.31-.17,1.62.78,1.76a.2.2,0,0,1,0,.13l-.27,1.81a.23.23,0,0,1-.13.18l-1,.56a3.28,3.28,0,0,1,.75,1.38,15.78,15.78,0,0,0,.47,2l1,1.22a.1.1,0,0,1,0,0l.51,1.19a.2.2,0,0,1,0,.2L4.32,54.73l.52,1.39a.19.19,0,0,1,0,.07L5,58.87l.77,1.81.87,1.7a.08.08,0,0,1,0,0L7.09,64l.62,1.84.81,1.64.54,1.36L9.81,70l1.44.58c.77.33.72.61.7.7-.06.29-.42.35-.94.36a5.82,5.82,0,0,1-1.12-.07,9.41,9.41,0,0,0,1.39,1c.36-.14,1-.33,1.27-.06a.51.51,0,0,1,.07.61,2.29,2.29,0,0,1-1.16,1.22l-.05.72.69.72a.24.24,0,0,1,.07.13l.34,1.86.11,1.73.44,2.32a.22.22,0,0,1,0,.08s-.1.88-.15,2a1,1,0,0,1-.39.89c-.12.08-.23.16-.12.94a7,7,0,0,0,1.48,3.1l.12.15a.5.5,0,0,1,.08.34,2,2,0,0,0,.34.18c.31.15.37.12.46.09s.42-.1,1,.17a5.66,5.66,0,0,0,.91.32.91.91,0,0,1,.71.46,1.24,1.24,0,0,0,.26.32,1.54,1.54,0,0,1,.44.74,8.23,8.23,0,0,0,.7,1.4l1.14.43,1.55.06,1.09,0,2.59.4.11,0,.68.48a.86.86,0,0,0,.61,0,1.28,1.28,0,0,1,.64-.11c.13,0,.22.19.35.25s.42-.1.23-.3a5.63,5.63,0,0,0-.74-.5c-.29-.25-.46-.6-.77-.83a.78.78,0,0,0-.43-.18,2.52,2.52,0,0,1-.86-.16c0-.23.34-.16.39-.34s-.41-.41-.51-.56-.18-.57-.34-.8-.27-.16-.48-.23c-.1-.29.1-.64-.09-.93a.57.57,0,0,0-.37-.22A2.2,2.2,0,0,1,24,89c.23-.27.79-.39.53-.87s-.94-.3-1.31-.52c.2-.21.42,0,.65,0,0-.28-.15-.46-.1-.7.53.06,1.59,1.41,2.09.53.21-.38-.08-1.07-.07-1.48a2.3,2.3,0,0,0,0-.74A1.61,1.61,0,0,1,26.07,84a4.48,4.48,0,0,1,.8-1.41c.76-.78,1.31-.76,1-1.88a.8.8,0,0,1-.75-.07c.47-.24.51-.23.66-.63a1,1,0,0,0,.13-.59c-.21-1.11-1.3-1-2.11-1a3,3,0,0,1-2.07-.65c-.6-.6-1.51-.92-1.94-1.69a2.32,2.32,0,0,1-.27-1c0-.34.48-.89.61-1.25s.14-.45.5-.55.48,0,.72-.32.28-.86.87-.69c.31.09.77.53,1,0s-.33-.62-.55-.89c.42-.46.92-.39.77-1,0-.13-.17-.18-.18-.3s.11-.29.12-.41c.06-.67-.39-1-.74-1.48.12-.12.41-.21.49-.37s0-.29,0-.45a.81.81,0,0,1,.44-.74c.2-.12.62-.12.75-.29.33-.41-.37-.56-.66-.64-.45-.12-1.32,0-1.43-.66a1.35,1.35,0,0,1,.92-.33c.39,0,.46.23.85.17s.52-.16.81,0,.27.46.47.68a.51.51,0,0,0,.68.15c.46-.19.41-.43.21-.8s-.36-.62-.51-1-.24-.88-.48-1-.5.16-.7.17-.43-.13-.65,0c-.25.57.13.6.35,1.07-.64.18-1-.36-1.49-.62s-.8-.29-1-.83a2.41,2.41,0,0,1-.37-1.31c0-.26.19-.64.06-.92s-.48-.29-.8-.49a1.14,1.14,0,0,1-.37-.89c.44-.14.51-.34.86.09s.47.39,1.11.4a8.61,8.61,0,0,1,1.52.25,17.52,17.52,0,0,0,2.17.35c.54.05.9.22,1.12-.37a1.42,1.42,0,0,0,.06-.74c-.14-.52-.57-1-.65-1.57a1.6,1.6,0,0,1,.28-1.06c.38-.79-.14-1.14-.63-1.63a.82.82,0,0,1-.35-.57c-.09-.52-.09-.71-.53-1.06.81-.62,1.62.37,2.51.34.52,0,1-.23,1.49-.21a8.74,8.74,0,0,0,2,0,13.63,13.63,0,0,1,2.21-.62,7.39,7.39,0,0,0,2.41-.53c.55-.24.66-.93.91-1.47.34-.12.62-.52.49-.83s-.27-.24-.33-.51a2.11,2.11,0,0,1,0-.71,3.72,3.72,0,0,0,0-1.41c0-.55,0-1.12.06-1.79a2,2,0,0,0-1-.13,3,3,0,0,0-.39-2.13c-.35-.3-.79,0-1.13-.35s-.27-1.21-.51-1.57-1-.57-.89-1.31c-.66-.19-1.2-.72-1.78-.93-.34-.12-.85-.11-1.08-.45-.56-.84.18-2.23.75-2.9.13-.75.2-.83.23-.87a.8.8,0,0,1,.36-.22,3.65,3.65,0,0,0-.18-1.13c-.17-.48-.17-.61-.1-.81a.46.46,0,0,0,0-.09c0-.06-.07-.24-.12-.33a1.16,1.16,0,0,1-.15-.48c0-.21,0-.68,0-.68a.17.17,0,0,1,0-.12,2.74,2.74,0,0,0,.34-.7,4,4,0,0,0-.5-.93.41.41,0,0,1-.11-.4.57.57,0,0,1,.37-.31v-.55L32.78,27a.2.2,0,0,1,0-.15l.44-1a.51.51,0,0,1-.1-.35C33.17,25.08,33.87,24.65,34.07,24.54Z"/></g></g></svg>