<svg xmlns="http://www.w3.org/2000/svg" viewBox="0 0 31.19 23.77"><defs><style>.cls-1{fill:#ca679f;}</style></defs><g id="Layer_2" data-name="Layer 2"><g id="World_Map" data-name="World Map"><path class="cls-1" d="M1.12,5l.73-.27a.11.11,0,0,1,.08,0h.52a.25.25,0,0,1,.2.1.24.24,0,0,1,0,.23l-.24.64,1-.19a.2.2,0,0,1,.13,0,6.29,6.29,0,0,0,.92.26l.24-.14a.47.47,0,0,1,0-.46c.18-.24.52-.13.64-.09l1,.34a.24.24,0,0,1,.13.11l.32.6.5.4a.24.24,0,0,1,.09.21.27.27,0,0,1-.12.2l-.2.11c-.1.12-.26.28-.51.53l-.48.49-.22.23a.48.48,0,0,1-.31.18s0,0,0,0l.08,1V10a.36.36,0,0,1,0,.1L5.26,11a.21.21,0,0,1-.1.11l-.39.24.05.67a.26.26,0,0,1-.19.26l-1,.21.24.28a.16.16,0,0,1,0,.11l.11.56.28.14a.16.16,0,0,1,.09.07l.4.51a.23.23,0,0,1,0,.24l-.21.52a.22.22,0,0,1,0,.08l-.65.72-.25.49.12.22h.38a.25.25,0,0,1,.25.24v.56a.23.23,0,0,1,0,.11l-.3.61a.26.26,0,0,1-.15.12,1.35,1.35,0,0,0-.37.16s-.26.42-.47.78V20h0c.24,0,.45.11.68.09A4.13,4.13,0,0,1,4.35,20c.06.22,0,.23.18.33s.31,0,.49.21.18.4.36.5a2.52,2.52,0,0,0,.56.09c-.18.08-.43.2-.41.43s.28.32.34.52,0,.39,0,.58.29.31.5.48.49.66.84.63.39-.69.58-.92a1.18,1.18,0,0,1,.57-.34c.36-.11.63.16.95.09.14,0,.32-.26.43-.35a1.33,1.33,0,0,1,.61-.29l1-.28a1.9,1.9,0,0,1,.63,0,1.1,1.1,0,0,0,.39,0,5.13,5.13,0,0,1,1,0,.93.93,0,0,1,.87.48c.31-.32.38-.82.92-.91.27,0,.46.12.69.19a1.56,1.56,0,0,0,.61,0,1.43,1.43,0,0,0,.14.2c.21-.06.33-.32.43-.49.2-.38.22-.82.43-1.19A2,2,0,0,1,19,19c.28,0,1.41.25,1.38-.23,0-.13-.06-.23-.06-.37s0-.24,0-.35.25-.45.44-.61.3-.22.32-.55a.36.36,0,0,1,.21-.37,10.08,10.08,0,0,1,1.14-.68c.18-.08.36,0,.44-.24s-.05-.35-.21-.46c-.37-.26-.86-.33-1.17-.69a.74.74,0,0,1,0-1,1.74,1.74,0,0,0,.28-.69,5.27,5.27,0,0,1,.21-1.12,1.27,1.27,0,0,1,.72-.68c.32-.17.92-.24,1.16-.51s.12-.33.18-.48c.14-.42.31-.47.7-.51.13,0,.44,0,.47-.19s-.14-.14-.22-.21.14-.27.21-.47.09-.52.38-.71a2.47,2.47,0,0,1,1.3-.14c.38,0,.88.09,1.12-.26.09,0,.17-.11.26-.15a2,2,0,0,0,.41-.21c.21-.17.28-.44.49-.59.47-.34,1-.47,1.47-.85.18-.15.57-.31.54-.6s-.49-.34-.38-.54.32,0,.41-.2.06-.14,0-.18l-.39.06-1.15.56a.19.19,0,0,1-.1,0h-.05l-1.15-.2-.93-.28H26.34a.25.25,0,0,1-.25-.25V3.39l-.91-.28-.31.27a.2.2,0,0,1-.16.07H23.65l-.59-.18-.84.18A.22.22,0,0,1,22,3.38l-.56-.52-1-.17-.92-.19a.25.25,0,0,1-.19-.22l0-.45a.22.22,0,0,1,0-.11l.05-.12-.54-.27a.22.22,0,0,1-.1-.09L18.55,1a.52.52,0,0,1-.13.06A1.15,1.15,0,0,0,18,.91c-.35,0-.72.19-1.1.13s-.46-.27-.69-.27-.41.17-.65.18A6.72,6.72,0,0,1,13.79.69c-.43-.11-.24.15-.56.35a2.79,2.79,0,0,1-1.08.06c-.33,0-.64-.05-1-.06a3.93,3.93,0,0,1-1,0C9.87.92,9.87.65,9.64.49A1,1,0,0,0,9,.4C8.3.4,7.58.46,6.86.43s-1.52.2-2-.16C4.57.05,4.7-.08,4.32.06a3.18,3.18,0,0,1-.79.21c-.26,0-.55,0-.8.06S2.55.5,2.55.81s-.47.57-.77.65A2.69,2.69,0,0,1,.61,1.4C-.62,1.27.39,2.52.39,2.94c-.18,0-.2.31-.1.42s.38.09.5.11A2.63,2.63,0,0,0,.83,4c0,.1.15.17.12.3-.06.32-.49,0-.55.36,0,.13.11.28.12.41a1,1,0,0,1,0,.17Z"/></g></g></svg>