<svg xmlns="http://www.w3.org/2000/svg" viewBox="0 0 1529.49 262.67"><defs><style>.cls-1{fill:#0c0c0c;}</style></defs><g id="Layer_2" data-name="Layer 2"><g id="Capa_1" data-name="Capa 1"><path class="cls-1" d="M0,166.12V3.19H68.23c43.35,0,78.49,21.91,78.49,81.47,0,58.87-35.14,81.46-78.49,81.46ZM33.31,136H61.38c35.6,0,50.43-16,50.43-51.34S97,33.31,61.38,33.31H33.31Z"/><path class="cls-1" d="M165,166.12V3.19h33.32V166.12Z"/><path class="cls-1" d="M282.71,166.12V3.19h69.6c47.23,0,60.92,22.37,60.92,46.78,0,22.14-8.44,35.83-27.84,42.67v2.29c16.66,5.7,24.19,17.11,29,39.93l6.39,31.26h-34l-5.93-30.58c-3.42-17.8-10.95-26.47-31.49-26.47H316v57.05ZM316,79h32.4c20.31,0,29.89-8.21,29.89-23.27,0-15.52-9.58-22.37-29.89-22.37H316Z"/><path class="cls-1" d="M424,166.12,485.57,3.19h41.75l61.61,162.93H551.05L539,131.21H472.33l-12.09,34.91Zm58.19-65h46.78L506.79,38.56H504.5Z"/><path class="cls-1" d="M595.78,166.12V3.19h33.31V166.12Z"/><path class="cls-1" d="M651.91,166.12V3.19H699.6l42.9,117.52h2.28L787.91,3.19h47.46V166.12H803.88V52.25H801.6l-42,113.87h-32L685.91,52.25h-2.29V166.12Z"/><path class="cls-1" d="M853.62,84.66C853.62,30.35,884.88,0,936.22,0c51.12,0,82.38,30.35,82.38,84.66s-31.26,84.65-82.38,84.65C884.88,169.31,853.62,139,853.62,84.66Zm130.06,0c0-34.46-18.25-54.31-47.46-54.31-29.43,0-47.46,19.85-47.46,54.31s18,54.3,47.46,54.3C965.43,139,983.68,119.11,983.68,84.66Z"/><path class="cls-1" d="M1036.85,166.12V3.19h35.59l73.25,106.11H1148V3.19h33.32V166.12h-35.6L1072.44,60h-2.28V166.12Z"/><path class="cls-1" d="M1204.1,166.12V3.19h68.23c43.35,0,78.49,21.91,78.49,81.47,0,58.87-35.14,81.46-78.49,81.46ZM1237.42,136h28.06c35.6,0,50.43-16,50.43-51.34s-14.83-51.35-50.43-51.35h-28.06Z"/><path class="cls-1" d="M1364.51,84.66c0-54.31,31.26-84.66,82.61-84.66,51.11,0,82.37,30.35,82.37,84.66s-31.26,84.65-82.37,84.65C1395.77,169.31,1364.51,139,1364.51,84.66Zm130.07,0c0-34.46-18.26-54.31-47.46-54.31-29.44,0-47.47,19.85-47.47,54.31s18,54.3,47.47,54.3C1476.32,139,1494.58,119.11,1494.58,84.66Z"/><path class="cls-1" d="M1236.76,209.42H1248l19.56,52.08h-10.84l-4.29-12.44h-20.07L1228,261.5H1217.2ZM1249.2,240l-4.65-13-1.89-6.33h-.59l-1.89,6.33-4.65,13Z"/><path class="cls-1" d="M1296.92,232.91h25.53a17.11,17.11,0,0,1,.37,2.11,22.91,22.91,0,0,1,.14,2.48,28.76,28.76,0,0,1-1.53,9.45,21.69,21.69,0,0,1-4.8,7.93,23.94,23.94,0,0,1-8.36,5.75,28.61,28.61,0,0,1-11.13,2,28.1,28.1,0,0,1-10.69-2,26.52,26.52,0,0,1-8.73-5.68,26.9,26.9,0,0,1-8.08-19.49,26.94,26.94,0,0,1,8.08-19.49,26.52,26.52,0,0,1,8.73-5.68,29.67,29.67,0,0,1,22,.15,25.31,25.31,0,0,1,8.55,6l-6.77,6.62a18.52,18.52,0,0,0-19.93-4.25,16.78,16.78,0,0,0-9.42,9.24,19.89,19.89,0,0,0,0,14.76,16.84,16.84,0,0,0,3.86,5.64,17.38,17.38,0,0,0,5.63,3.6,20.05,20.05,0,0,0,13.86.07,16.43,16.43,0,0,0,4.91-3.09,11.6,11.6,0,0,0,2.51-3.31,18.89,18.89,0,0,0,1.64-4.47h-16.37Z"/><path class="cls-1" d="M1340.93,218.73V230.8h20.88v9.32h-20.88v12.07h23.2v9.31h-33V209.42h33v9.31Z"/><path class="cls-1" d="M1373.15,209.42h11.42l21,34.91h.58l-.58-10V209.42h9.75V261.5h-10.33l-22.11-36.88h-.58l.58,10V261.5h-9.68Z"/><path class="cls-1" d="M1470.55,253.14a26,26,0,0,1-9.09,7.09,29,29,0,0,1-22.51.33,27.21,27.21,0,0,1,0-50.2,27.52,27.52,0,0,1,10.8-2.11,26.15,26.15,0,0,1,11,2.19,25.41,25.41,0,0,1,8.47,6.33l-6.91,6.69a18.24,18.24,0,0,0-5.34-4.29,15.09,15.09,0,0,0-7.17-1.6,18.27,18.27,0,0,0-6.83,1.27,16.6,16.6,0,0,0-5.57,3.6,17,17,0,0,0-3.75,5.64,20.42,20.42,0,0,0,0,14.76,17,17,0,0,0,3.75,5.64,16.6,16.6,0,0,0,5.57,3.6,18.27,18.27,0,0,0,6.83,1.27,16.34,16.34,0,0,0,7.75-1.78,19.18,19.18,0,0,0,6-5Z"/><path class="cls-1" d="M1491.58,237.28,1474,209.42h11.72l10.4,17.24h.58l10-17.24h11.86l-17.24,27.86V261.5h-9.82Z"/></g></g></svg>