<svg xmlns="http://www.w3.org/2000/svg" viewBox="0 0 149.75 116.17"><defs><style>.cls-1{fill:#ca679f;}</style></defs><g id="Layer_2" data-name="Layer 2"><g id="World_Map" data-name="World Map"><path class="cls-1" d="M65.15,99.69c.91.8,1.3.18,2.34.59,1.23.48,1.19,2.07,2.85,2,.57,0,1.26-.56,1.8-.42s.64.85,1.14,1.18c.69.47,1.8.42,2.52.85a6,6,0,0,0,2,1c.33.06.7-.07,1,0,.72.25.85,1,1.45,1.44,1.15.82,2.61,1,3.62,2a4.37,4.37,0,0,0,4.1,1.38,5.55,5.55,0,0,1,2.19,0,5.5,5.5,0,0,0,3.71-.8A8.55,8.55,0,0,1,97,107.5c.85-.24,2.06-.36,2-1.52,0-.42-.88-1.57,0-1.73.26,1,1.15,1,1.95.42.52.73-.14,1.42.93,1.61s1-.56,2.1.36a10.19,10.19,0,0,1,1,1.18c.12.2.24.39.31.53a1.89,1.89,0,0,0,.76.87,7.64,7.64,0,0,1,1.11.83c.56.52,1.14,1,1.68,1.53a3.76,3.76,0,0,1,.25.31c.7,1.18,1.6,2.3,2.38,3.37.23.3.46.6.68.91l.39-.55.18-1.23a.28.28,0,0,1,.05-.16l.5-1-.38-1.39a.52.52,0,0,1,.07-.42l3.17-4.84a.51.51,0,0,1,.41-.23l7-.18.19-1.21-.61-.61a.44.44,0,0,1-.1-.15l-.53-1.14-2.48-1.86a.43.43,0,0,1-.14-.16l-.87-1.61a.47.47,0,0,1,0-.5.52.52,0,0,1,.44-.25h0l1.9,0,.48-3.46a.53.53,0,0,1,.52-.43l9.6.24a1,1,0,0,1,.08-.11L133,94a.53.53,0,0,1,.63,0l.44.31,1.5-1.49.69-1.5a.51.51,0,0,1,.41-.3l1.54-.16a.85.85,0,0,1,.09-.15c.24-.42,1-1.19,1.56-1.07.06.53-.33.9-.32,1.4a4.3,4.3,0,0,0,.89,1.88c-.22-1.1,1.15-3,1.75-3.87.4-.58,1.92-1.63,1.48-2.52-.27-.55-.9-.07-1.28-.44.27-.39.65-.39,1-.63s1.1-1.35.44-1.73c-.37-.2-1.05.69-1-.21.05-.69,1.1-.77,1.55-1,.72-.41.49-.92.61-1.68a6.16,6.16,0,0,1,.74-1.78,16.28,16.28,0,0,1,.93-2.34A8,8,0,0,1,148.7,75c.9-.71,1.49-2.1.63-3.08a6.11,6.11,0,0,0-1.2-.91c-.58-.34-.64-.2-1.09-.06a2.32,2.32,0,0,0-1.25.72c-.25.3-.15.4-.58.48a4.19,4.19,0,0,1-1.92-.47c-1.13-.52-2-1.74-3.32-1.15a4.7,4.7,0,0,1-1.67.6c-.88.11-1.7.21-2.6.27a10.28,10.28,0,0,0-5.36,1.82c-1.46,1.15-1.74,3.25-2.27,4.91a4.37,4.37,0,0,1-.78,1.59c-.34.36-1,.33-1.31.65a5,5,0,0,0-.76,1.83c-.24.74-.56,1.45-.79,2.19A2.94,2.94,0,0,1,122,87c-.34.1-1.18.12-1.4.39-.38.49.24,1.17.4,1.51s.38,1.76-.06,2.1a4.69,4.69,0,0,1-1.2.08c-.46,0-1.32.23-1.68-.11s-.29-1.27-.16-1.72c-1.08-.67-1.64-.23-2.78.1-.74.22-2.17-.23-2.59.28-.19.22-.16.57-.43.8a1.51,1.51,0,0,1-1,.26,2.45,2.45,0,0,0-1.83.6,4.06,4.06,0,0,0-.47.56l-.52.16a30.34,30.34,0,0,1-3,.63c-1.57.37-2.07.61-3.28-.67-.82-.85-1-1.65-2.36-1.59a1.28,1.28,0,0,0-.87-1.08c-1-.39-1.52.26-2.28.32-1.2.09-1-1.44-1.19-2.3-.29-1.13-1.15-2.11-1.45-3.27-.17-.67,0-1.35-.13-2-.21-1.31-1.43-2.16-1.94-3.36-.46-1-.64-2.18-1.09-3.21-.32-.77-.83-1-1.35-1.6A2.73,2.73,0,0,1,88.79,72c-.07-2-1-3.91-.59-6a39.89,39.89,0,0,0,.86-4.33,1.93,1.93,0,0,0,.24,0,28.63,28.63,0,0,1,.85-3.61,13.74,13.74,0,0,0,.9-2.08,20.12,20.12,0,0,1,.42-2c.38-1.23,1.12-2.32,1.53-3.53a15.1,15.1,0,0,1,1.1-3.06c.56-.94,1.84-1.8,2.49-2.77a2.17,2.17,0,0,1-.41,0,1.75,1.75,0,0,1-1.44-1.1,3.37,3.37,0,0,0-.27-.42c-.15-.19-.3-.23-.64-.32a3,3,0,0,1-1.3-.59c-.26-.2-.47-.17-.89-.11A2.15,2.15,0,0,1,90,41.93a10.68,10.68,0,0,0-3-1.33c-.85-.12-1-1.28-1.22-2.51a8.1,8.1,0,0,0-.31-1.47,2.64,2.64,0,0,1-.07-2l-.79-3s-1.2-2.81-1.82-4.1a2.31,2.31,0,0,1-.29-1.83A22.35,22.35,0,0,0,82.72,23a7.31,7.31,0,0,0,0-1.33l-.09,0a1.11,1.11,0,0,1-1.52-.09,3.63,3.63,0,0,1-1-2.31,2,2,0,0,0-.52-.35c-.15-.1-.29-.18-.38-.25H77.89c-.84,0-2,0-3.55-.08a7.75,7.75,0,0,0-1.68.05.78.78,0,0,1-.21.89,4.91,4.91,0,0,0-.26.65,7,7,0,0,1-2.06,3.2c-1.47,1.18-2.14.77-2.75.2a1.84,1.84,0,0,0-.38-.31,7.13,7.13,0,0,1-1-.73,7,7,0,0,0-.94-.7c-.85-.53-2.13-1.59-3.37-4.75-.65-1.65-.66-2.27,0-2.75.07-.06.1-.12.08-.34a1.76,1.76,0,0,1,.33-1.41c-.29,0-.62.07-.89.11l-1,.11c-.64.06-.9-.2-1-.43-.21-.44.09-1,.4-1.35L59,9.19l-2.5-1.9a.51.51,0,0,1-.17-.24L56,6,47,5.88l-.91,2.56a.51.51,0,0,1-.47.34h0l-15.57,0a.45.45,0,0,1-.2,0L12.15,1.14a.49.49,0,0,1-.29-.35A.5.5,0,0,1,12,.35l.3-.35L.14,1.54a1.11,1.11,0,0,0,0,.26c0,.69.47,1.22.5,2A5.93,5.93,0,0,0,.74,4.89a2.55,2.55,0,0,1,.2.88C-.09,5.54.43,7.9.62,8.43A7.15,7.15,0,0,1,1,9.8c0,.23-.07.53,0,.75s.4.47.51.78c.27.71-.38,1.15-.59,1.76-.33,1,.2,1,.68,1.61s0,1.26-.29,1.86c-.55,1,.47,1.26.55,2.2.05.51-.25.47.19.84a3.13,3.13,0,0,0,.8.3c0,.08,0,.15,0,.23.23.66.52.6,1.06.89,1.07.58,1.09,2,2,2.66.65.5,1.31.56,1.53,1.38a4,4,0,0,1,0,1.86A8.16,8.16,0,0,1,6.4,29c-.4.68-.76.91-.5,1.68.09.27.67,1.83-.15,1.6-.36-.1-.85-1.44-1-1.74-.68.3-.58.79-1.44.61A10.71,10.71,0,0,0,1,30.83c-1.25,0-1.23.84-.15,1.49s2,.31,2,1.59c0,.24-.19.7,0,.92s.52.09.75.25c.49.32.41,1.24.76,1.51.87.64,1.26-1,1.75,0S5.68,38.17,7.18,38c.43,0,.47.11.92-.25a4.68,4.68,0,0,0,.75-1c.73-1,1,.1,1,.89,0,1.32.65,1.77,1.65,2.59.69.56,1.8,1.07,1.71,2.09,0,.34-.23.59-.2,1,.06.57.49,1.06.61,1.64.27,1.28-.91,1.78-1.27,2.86a3,3,0,0,0,.11,2.15c.16.41.45,2.08.81,2.28.86.49.66-.56,1.12.59a3.64,3.64,0,0,0,1.82,1.68,8.79,8.79,0,0,1,1.7,1.41,11.31,11.31,0,0,1,1.62,1.46,12.14,12.14,0,0,1,.52,1.3c.32.61.87.7,1.31,1.14.68.68.34,2,.12,2.84,2.11,0,3.62-1.06,3.54-3.31,0-.62-.44-1-.74-1.5s-.47-1.25-.79-1.84-.64-.82-.91-1.3c-.18-.31-.22-.82-.41-1.09-.76-1.07-1.16.68-1,1.39-.79.35-.9-.36-1-.93-1-.29-1.41-.34-1.47-1.45-.06-.92.56-.7,1-1.31.26-.39.09-.88.06-1.31a3.15,3.15,0,0,0,0-1c-.17-.51-.8-.76-1-1.25s.27-.92.3-1.5A3.45,3.45,0,0,0,18.37,45a5.63,5.63,0,0,1-.72-1.74c-.07-.74.47-1.35.55-2.07A8.4,8.4,0,0,0,18,38.88c-.15-.58-.72-.92-.86-1.5a2.94,2.94,0,0,1,0-1c-.6,0-.65,1.93-.71,2.39-.61,0-.22-2.34-.38-2.81a11.51,11.51,0,0,0-.74-1.44A4.35,4.35,0,0,1,15,33.06c-.2-1.41-1.69-1.53-1.43-3.12.08-.54.58-1.12.66-1.63.12-.8-1.16-1.13-.81-1.81-1.24-.59-.3-1.87-1.4-2.22.35-.74-.56-.56-.76-1s.16-1.3-.1-1.9-.91-1.12-1.23-1.76a4.73,4.73,0,0,0-.4-1c-.26-.33-.7-.4-1-.7a3.55,3.55,0,0,1-.69-2c0-.27,0-.74,0-1.17a3.66,3.66,0,0,0,.66-1.44c.08-.4-.06-.84,0-1.24s.26-.73.31-1.11c.1-.75.05-1.5.18-2.23.18-1.07,1.08-1.56,1.57-2.45a2,2,0,0,0,.18-.5,2,2,0,0,1,1.11.74c.7.94,1.09,1.26,2.36.63.84-.41,1.18-1,1.81-.12.22.28.25.67.53.94.61.6,1.41.36,2.18.79,2.08,1.15-.83,2.42-1.33,3.4-.07,0-.16,0-.22,0-.8,2.31.74,3.73,1,5.85a4.37,4.37,0,0,0,.52,2.23c.26.35.46.23.68.62a2.24,2.24,0,0,1,.17,1.3,13.15,13.15,0,0,0,0,2.26,4.07,4.07,0,0,0,1.12,2.7c.3.45.38,1.09.74,1.48s1.18.32,1.7.75.33.79,1.08,1c.49.14,1.12-.11,1.54.3,1,1-1.45,2.06-.83,3.42.35.79,1.82,1,2.25,1.67.44.13.87.11,1.05.52s-.28,1.12-.36,1.52c.71.13,1.84.11,2.32.75s.13,1.71.44,2.42.67.57-.11,1.05c-.44.26-.72.16-1.07.67s-1.23,2.62.13,2.28c.4-.09.89-1.41,1.57-.37.39.6-.73,1.18-1.2,1.48.42.1,1.56-.09,1.93.16s.24.7.64,1c.66.4,2.42.43,2.12,1.72-.15,0-.38.06-.54,0a4.92,4.92,0,0,0,1.35,2.85c.36.3,1,.41,1.17,1,.1.34-.25.44-.2.81a2.22,2.22,0,0,0,.93,1.2c1.28.8,2.2.22,2.57,1.77A6.56,6.56,0,0,0,40.48,58a18,18,0,0,1,.94,1.86,7.36,7.36,0,0,0,.43,1.19c.29.48.89.76.9,1.33h.13a4.68,4.68,0,0,0,.48.58A2,2,0,0,1,44,64.11c.23,1.1,0,2.26.18,3.37.1.71.44,1.48.59,2.2,0,.16.1.53.15.68.15.36.23.32.43.65.58.95,1.3,2.72.33,3.62-.42.4-.87.52-1.24,1-.23.29-.87,1.1-.68,1.5s1.31,0,1,1c-.17.51-1.11.42-1.63.64-1.52.66-1.24,1.88-.39,3.06.63.89.49,1.32.79,2.28.55,1.78,2.09,1.61,3.34,2.65.23.2.53.89.73,1,.53.32,1-.21,1.63.33s.52,1.29.84,1.91.58.6,1,1c.67.74.83,1.27,1.73,1.85.44.27,1.28,1.18,1.82,1.16s1.21-.89,1.67-1.12c.32.23.42.73.72.94.51.34,1,0,1.53,0,.75,0,.87.2,1.46.61.3.22.82.36,1.06.63s.25,1,.51,1.41,1.09.77,1.53,1.33A14.73,14.73,0,0,0,65.15,99.69Z"/></g></g></svg>