<svg xmlns="http://www.w3.org/2000/svg" viewBox="0 0 152.94 76.15"><defs><style>.cls-1{fill:#ca679f;}</style></defs><g id="Layer_2" data-name="Layer 2"><g id="World_Map" data-name="World Map"><path class="cls-1" d="M5,47c.1.25-.18.44,0,.61s.46,0,.63,0c.53,0,1.07.06,1,.72-.06.3-.29.57.17.59s.48-.23.76.15a3.42,3.42,0,0,1,.58,1.18,2.4,2.4,0,0,1,.27,1.17c0,.17-.29.39-.29.56s.1.14.3.29a.61.61,0,0,1,.16.17l6.37-.81a.26.26,0,0,1,.25.13.24.24,0,0,1,0,.28l-.33.39L23,56h7.35l.44-1.24a.26.26,0,0,1,.23-.17l4.69.05a.26.26,0,0,1,.23.16l.21.62,1.22.93a.27.27,0,0,1,.09.12l.34,1.09a.25.25,0,0,1,0,.25.81.81,0,0,0-.12.14l.36,0c.57-.07.9-.11,1.08,0a.32.32,0,0,1,.12.25.48.48,0,0,1-.24.39c-.1.06-.16.11-.13.39a.58.58,0,0,1-.24.6s0,.17.18.76a3.79,3.79,0,0,0,1.44,2.07,4.49,4.49,0,0,1,.51.38,3,3,0,0,0,.43.31,1.6,1.6,0,0,1,.27.22c.18.17.25.23.7-.13A3,3,0,0,0,43,61.81a1.58,1.58,0,0,1,.21-.45.44.44,0,0,1,0-.41c.13-.17.39-.27,1.28-.23s1.3,0,1.7,0c.6,0,.8,0,.94.11a.3.3,0,0,0,.11.07c.2.12.5.29.5.61a1.28,1.28,0,0,0,.37.81.34.34,0,0,1,.12-.08.51.51,0,0,1,.54-.06c.21.13.28.43.26,1.14a13.39,13.39,0,0,1-.12,1.38.69.69,0,0,0,.1.61c.3.63.88,2,.9,2L50.32,69a.21.21,0,0,1,0,.19.79.79,0,0,0,0,.62,4,4,0,0,1,.18.82,2.57,2.57,0,0,0,.21.82,5.6,5.6,0,0,1,1.62.71.59.59,0,0,0,.46,0,.93.93,0,0,1,.81.15,1,1,0,0,0,.45.2.93.93,0,0,1,.57.32,1.81,1.81,0,0,1,.18.27c.17.29.21.37.52.21l.13-.08c0-.3-.23-.57-.28-.87a7.26,7.26,0,0,1-.28-1.78,4.53,4.53,0,0,0-.06-1.46c-.33.09-.37-.3-.22-.53.26-.38.48,0,.76.26.11-.34.59-.51.62-.89s-.48-.5-.14-.76.68.12.86-.28c.09-.19-.11-.49-.24-.62a5,5,0,0,1,1.64-.67c.58-.19,1-.52.5-1.12.6-.35.58.12,1,.29s.64-.11.88-.28c1-.66,2.46-.87,3.12-1.89a1,1,0,0,0,.26-.92c-.05-.19-.34-.56-.24-.79a1.13,1.13,0,0,1,.92-.34c.25.13.18.54.19.76.33,0,.42.36.61.56.27-.28.87-.13,1-.57,0-.14-.1-.39,0-.56.12-.35.6-.44,1-.4.16.42.07.61.49.9s.41-.09.91-.21a3.26,3.26,0,0,1,1.31.19,4.65,4.65,0,0,1,.72.16c.12,0,.26.18.39.19.86,0,0-1,.64-1.18.19,0,.48.33.69.39s.53-.08.75.14a3.88,3.88,0,0,1,.33.57l.2.38a1.19,1.19,0,0,0,.22,1.3c.25-.12.81-.57,1.08-.46.1,0,.16.27.24.34.45.43.84.12,1.32,0,.31-.09.74,0,.8-.38,0-.11-.16-.32-.12-.39.16-.34.51.07.63.24.36.54.34,1.16,1.1.94.41-.12.86-.21.71-.79s-1.2-.43-1.26-1,.77-.55.75-1.12a.63.63,0,0,1-.63.41c.06-.36.29-.83-.2-.87s-.65.41-1,.12c-.17-.13-.14-.35-.29-.5s-.67-.21-.94-.37c.28-.41,1.27-.34,1.68-.19a7.52,7.52,0,0,0,1,.47,3.33,3.33,0,0,0,1.7-.31,3,3,0,0,1,1.21-.31c.22.05.31.24.54.25.62,0,.75-1.07,1.21-.89,0,.36-.07.81.14,1.11a2.74,2.74,0,0,1,.78-.1c.47-.06.55-.25.85-.49a3.05,3.05,0,0,1,2.21-.36c0,.37.14.49.46.62a4,4,0,0,1,1.26.74,5.14,5.14,0,0,1,.44.31c.17.17.31.58.51.7a2.88,2.88,0,0,0,2.13-.34c.22-.21.31-.59.64-.65a3.23,3.23,0,0,1,1.49.64c.34.28.45.78.7,1.12.41.55,1.18.95,1.22,1.71a3.76,3.76,0,0,1-.38,1.68c-.33.68-1.26.74-1.21,1.65,0,.68.21.33.5.15.63-.38.85.17.48.67-.17.24-.33.22-.34.55a3.58,3.58,0,0,0,.33,1.1,2.62,2.62,0,0,0,.18.56c.1.14.33.15.41.29s-.06.4-.19.62-.31.36-.15.64.38.14.56.31.24.57.38.77.52.55.58.89c.07,0,.17,0,.23,0a2.48,2.48,0,0,0,.51,1.42c.19.36.05.75-.44.62.15.24.08.59.34.77a4.2,4.2,0,0,1,1-.45c.33-.09.84,0,1.09-.2s.12-.26.22-.37a2.46,2.46,0,0,1,.34-.22,2,2,0,0,0,.59-1,3.46,3.46,0,0,0,0-.78,3.28,3.28,0,0,1,.62-1.43c.55-.85-.26-1.77,0-2.63a2.55,2.55,0,0,0,.3-1.11,8,8,0,0,1-.2-1.46c.1-.74.53-1.06.15-1.82a7.22,7.22,0,0,1-.94-2.38,18.75,18.75,0,0,1,0-2.12,6.32,6.32,0,0,1,0-1.69c.1-.25.36-.21.34-.59s-.25-.56-.2-.91a1.13,1.13,0,0,0,.81-.31c.17-.19.11-.39.17-.64s.2-.51.29-.76l.2-.13c1-.68,2-.65,2.62-1.75a9.13,9.13,0,0,1,.8-1.66c.4-.33,1-.15,1.4-.49,1.28-1.12,1.59-4.32,4-2.64.48-.43,1.15-.6,1.65-1,.74-.66,1.11-1.24,2.16-1.4.47-.07,2.56-.12,2.6-.86s-1.19-.49-1.55-.72a4.5,4.5,0,0,1,1.1,0c.13-.54-.4-1,.28-1.29.24-.1.88.25,1.18.25,1.27,0,2.08-2.34.69-2,0,.35-.22.53-.56.48a1.34,1.34,0,0,0-.17-.78,2.17,2.17,0,0,1-1.43.3c.13-.4,1-.52,1.3-.64.58-.2,1.13-.52,1.7-.67,0-.58,0-1.12,0-1.7a1.7,1.7,0,0,1-1.34.29.84.84,0,0,1,0-.66,8,8,0,0,0,1.45-.49,7,7,0,0,0-.34-2.15c-.07-.16-.66-.57-.82-.87a1.68,1.68,0,0,1-.27-1c.57.56.82.73,1.61.56a1,1,0,0,0,0-.3l.13,0c0-.71.09-1.79,1-1.73a4,4,0,0,1,.84-1.85c-.21.83-.87,1.48-.91,2.36-.05,1.16.52,1.64-.05,2.79-.47.94-.17,2.64.56,1.08a4.52,4.52,0,0,1,.63-1.36c.4-.47,1-.71.91-1.44l.31,0c.49-1-.57-2.21.57-3.1l.41.34c.09.62.66,2,1.24,1.16.24-.32.08-.67.33-1a7.27,7.27,0,0,1,1-.87c.55-.41,1.17-.49,1.15-1.33,0-.61-.62-1,.17-1.51.55-.32,1.17.08,1.72,0s1.1-.35,1.69-.45,3.89-.18,2.36-1.29c-.42-.31-1,.23-1.52.24a7.68,7.68,0,0,1-1.8-.1c1.21-1,3.44-.71,4.91-1.16a1.24,1.24,0,0,1,.72-.78,2.33,2.33,0,0,0,.61,1c.74-.74,1.37-.36,2.37-.46a1.34,1.34,0,0,0,1.08-2.12c-.16.6-.54,2.27-1.33,1.14a1.09,1.09,0,0,0,.09-1.07c-.06-.14-.52-.69-.5-.83.08-.41.67-.31.83-.49s.21-.61.41-1,.46-.37.59-.75a3.7,3.7,0,0,0,.13-.81,1.44,1.44,0,0,0,.83-.31c.35-.28.34-.57.72-.8a10.29,10.29,0,0,1,2.82-.81,19.15,19.15,0,0,0,2-.63c.8-.23.93-.45,1.08-1.35,1.22-.24,3,0,3.33-1.3l-.12-.11-.66-.45c-.22-.18-.06-.43.08-.66a1.14,1.14,0,0,0,.13-.23l0-.05a.59.59,0,0,1-.45-.23.36.36,0,0,1,0-.36c.12-.21,1-2.65,1.51-4.26l-.34-.26-.35-.36a3.27,3.27,0,0,1-.8.42c-.9.18-1,.09-1.12,0s-.15-.09-.23-.39L148,8.28c-.2.2-1.28,1.21-1.39,1.3a11.2,11.2,0,0,0-.7,1l-.3.68a.29.29,0,0,1-.14.13,8.62,8.62,0,0,0-.86.37,6.12,6.12,0,0,0-.4.57.27.27,0,0,1-.19.11.21.21,0,0,1-.13,0l-.24.35a.27.27,0,0,1-.19.11.22.22,0,0,1-.2-.09l-.05-.07-.2.07h-.43l-1,.83a.22.22,0,0,1-.15.06H134l-.49.13a.25.25,0,0,1-.17,0l-.18-.08L130,15.62a.36.36,0,0,1-.2.12l-.57.33c-.09.16-.17.3-.25.42a1,1,0,0,1,.21.15,1.11,1.11,0,0,1-.44.2,3,3,0,0,1-.39.52.53.53,0,0,1-.23.35c-.1.06-.24.07-.33.16s-.12.38-.3.49c-.36.22-1,0-1.43.09s-.74.58-1.17.67a4.34,4.34,0,0,1-1,0c-.8,0-1.49-.37-2.3-.3a3.53,3.53,0,0,0-.54.08l-.41.88a.18.18,0,0,1,0,.07l-.3.31a2.69,2.69,0,0,1-.73.65c-.86.53-2,.57-2.8,1.13-.35.23-.6.59-1,.81a15.76,15.76,0,0,1-1.59.8,7.44,7.44,0,0,1-3.07.73c-1.11,0-2,1-3.17.44,0-.08,0-.26,0-.32s.31,0,.37-.05c.22-.22-.31-.32-.47-.37s-.69-.18-.76-.44c-.13-.49.55-.37.78-.51a.66.66,0,0,0,.23-.24.26.26,0,0,1,0-.21l.23-.29a.71.71,0,0,1,.08-.15.5.5,0,0,1,.23-.26l.19-.24.08-.07.83-.43a.56.56,0,0,1,.2-.14c.08-.1.26-.65.55-.4l0,.06.86-.65a.35.35,0,0,1-.09-.16c-.13-.52.78-1.95.12-2.31-.37-.2-3.53,1.62-2.87.15.28-.62,1.22-1,1.74-1.45a3.92,3.92,0,0,0,1-1.48c.22-.37.73-.59.71-1.07a2.26,2.26,0,0,0-.38-.82,3,3,0,0,0-1.16-.94c-.47-.31-1-.66-1.4-.2-.24.25-.29.51-.6.71-.59.38-1.25.37-1.55,1.09-.1.23-.45,1.47-.9.82-.12-.18.22-.86.2-1.11a2.4,2.4,0,0,0-.71.53c-.61.55-1.09,1.22-1.7,1.77-.31.28-.77.39-1,.68a1.35,1.35,0,0,0-.24,1,4.36,4.36,0,0,1-.12,1.35,13.41,13.41,0,0,1-.7,1.36,13.25,13.25,0,0,1-1.44,2.41c-.17.19-.38.35-.55.55-.32.36-.48.9-.81,1.23a1.34,1.34,0,0,1-1.32.11c-1.15-.33-1-1.17-.64-2.1.33-.74.85-1.38,1.25-2.09s.83-1.67,1.31-2.48c.37-.64.69-1.29,1.1-1.91.17-.26.41-.64.28-1s-.15-.27-.4-.07-.5.73-1,.61c.28-1,1.26-1.6,2-2.18s1.17-1.52,2.07-1.9a4.92,4.92,0,0,1,1.06-.38c.37,0,.34.27.63.26s.54-.34.77-.39c.51-.11,1.08,0,1.6-.12s.77-.34,1.21-.27l0,.37a2.52,2.52,0,0,1,1.25,0c.25,0,.72.2,1,.08s.25-.51.18-.82a1.65,1.65,0,0,0-.23-.59l0-.05s-.07-.08-.12-.09c-.27-.13-.59.15-.88.07.46-1.1-1-.7-1.62-.46-.49.18-1,.64-1.55.64s-.63-.37-1-.41c-.53-.06-1.38.58-1.81,0-.13-.16-.09-.47-.21-.65a1.48,1.48,0,0,0-.46-.4,2.08,2.08,0,0,1-1.3,0,1.48,1.48,0,0,1,.6-.94c.36-.21,1.39-.19,1.19-.91-.58,0-1.06.46-1.64.57a2.34,2.34,0,0,0-1.48.64,4.63,4.63,0,0,1-2.06.88,5.77,5.77,0,0,0-.83.15c-.48.16-.79.59-1.3.66-.73.11-.67,0-.84-.54s-.37-.64-.8-.45a6.05,6.05,0,0,1-1.61.73c-.44.06-1.09,0-.77-.6.23-.42,1-.58,1.4-.76s.74-.36,1.11-.56a22.46,22.46,0,0,1,2.26-1c.59-.22,1.1-.57,1.68-.82s1.17-.29,1.75-.47l-1.39-.26L98.7,4a11.55,11.55,0,0,0-1.58.4.22.22,0,0,1-.11.1c-.21.1-.28,0-.86-.81H94.72a.25.25,0,0,1-.23-.15.25.25,0,0,1,0-.26l.19-.22-1.48-.45-1.41.24h-.12l-1.66-.6A.25.25,0,0,1,89.89,2a18.38,18.38,0,0,1,.53-2l-.89,1.35a.23.23,0,0,1-.2.11H22.07a.76.76,0,0,1,0,.39c-.07.26-.14.24-.07.5.12.49-.48.18-.51.54,0,.16.12.26.06.41s-.27.14-.35.26c-.23.39.46.61.08.93-.21.17-.55.08-.69.3s-.18.36-.3.54-.24.64-.44.88a1.19,1.19,0,0,1-.38.25c-.49.26-.92.66-1.54.53-.43-.09-.06-.48.26-.44s.62.29.87,0,.11-.52.26-.76a1,1,0,0,1,.58-.46.54.54,0,0,0,.33-.55,2.85,2.85,0,0,1-.08-.51,2.89,2.89,0,0,0,0-.29c-.18-.07-.62.23-.62-.14-.12,0-.19.09-.29.14a.7.7,0,0,1-.38,0c-.36-.08-.74,0-1.09-.15s-.74-.36-1.12-.5a.67.67,0,0,0-.94.4c0,.17,0,.35,0,.53s-.16.35-.21.53a3.12,3.12,0,0,0-.17.78,2.94,2.94,0,0,1,.05.51,1.91,1.91,0,0,1-.28.55,2.05,2.05,0,0,0-.35.67c.08.09.19.07.29.13a1.31,1.31,0,0,1,.11.12,1.31,1.31,0,0,1-.39.21c-.24.1-.6.17-.48.47s.65.41.17.7-.3-.31-.66-.16-.22.61-.39.85a3.83,3.83,0,0,0,.68,0c.14,0,.26-.11.42-.06s.26.16.36.21.27.08.34.29c.15.47-.45.27-.7.16-.52-.24-.61-.09-1.08,0s-.43.14-.64.65A7.75,7.75,0,0,1,12,12.21c-1,1.49-2,2.92-3,4.36A8.9,8.9,0,0,1,7.85,18a16.57,16.57,0,0,0-1.53,1.38c-.38.45-.62,1-1,1.42-.19.22-.35.32-.42.58a5.75,5.75,0,0,1-.22,1c-.16.36-.41.67-.58,1s-.32,1-.58,1.47a10.41,10.41,0,0,1-1.35,1.88c-.19.23-.46.36-.63.56a.56.56,0,0,0-.22.13,1.38,1.38,0,0,0-.26.53c-.08.27-.05.29.13.49a.75.75,0,0,1,.21.64c0,.31-.29.57-.29.87s.09.61-.09.86-.7.39-.9.78c-.08.15-.21.58-.06.72s.22,0,.3.15A1.29,1.29,0,0,1,.52,33c0,.24,0,.49,0,.73s.25.32.49.4a1.28,1.28,0,0,1-.22.79c-.23.44-.06.3.27.38s.23.26.47.18c.41-.13.27-.7.67-.86a.48.48,0,0,1,.39,0,2.55,2.55,0,0,0,.61.13,3.92,3.92,0,0,1,1,0c.12,0,.17,0,.21.19.1.39-.42,0-.61,0-.35-.09-.46.12-.78.17-.14,0-.24-.05-.37-.06a.38.38,0,0,0-.44.38,2.71,2.71,0,0,0,.08.69c0,.19,0,.39.06.56-.26,0-.37-.29-.44-.5s-.12-.49-.35-.28-.05.31-.11.44-.27.24-.48.25c.08.39.23.62,0,1s-.14.31.08.51a1.61,1.61,0,0,0,.5.31,1.11,1.11,0,0,1,.26.07c.07.07,0,0,.08.18.08.43-.35.91-.63,1.19s-.25.45-.16.88a4.78,4.78,0,0,0,.2.85c.06.15.23.23.3.36v0c-.06.2-.13.41-.18.61.15.16.38.18.52.31s.07.2.13.4.2.18.09.43a1,1,0,0,1-.29.36c.12.25.3.18.35.46a1.11,1.11,0,0,1-.16.62c-.22.43-.66,1.06,0,1.38.21.1.33-.06.55-.09s.66.14,1,.12S4.73,46.38,5,47Z"/></g></g></svg>