<svg width="189" height="727" viewBox="0 0 189 727" fill="none" xmlns="http://www.w3.org/2000/svg">
<path d="M54 523.15L54 521.15L52 521.15L52 523.15L54 523.15ZM54 569.32L52 569.32L52 570.459L52.9797 571.04L54 569.32ZM147.86 624.99L148.88 626.71L151.781 624.99L148.88 623.27L147.86 624.99ZM54 680.66L52.9797 678.94L52 679.521L52 680.66L54 680.66ZM54 726.83L52 726.83L52 728.83L54 728.83L54 726.83ZM187 726.83L187 728.83L189 728.83L189 726.83L187 726.83ZM187 692.63L189 692.63L189 690.63L187 690.63L187 692.63ZM95.8 692.63L94.7632 690.92L88.6431 694.63L95.8 694.63L95.8 692.63ZM187 637.34L188.037 639.05L189 638.466L189 637.34L187 637.34ZM187 612.64L189 612.64L189 611.514L188.037 610.93L187 612.64ZM95.8 557.35L95.8 555.35L88.6431 555.35L94.7631 559.06L95.8 557.35ZM187 557.35L187 559.35L189 559.35L189 557.35L187 557.35ZM187 523.15L189 523.15L189 521.15L187 521.15L187 523.15ZM52 523.15L52 569.32L56 569.32L56 523.15L52 523.15ZM52.9797 571.04L146.84 626.71L148.88 623.27L55.0203 567.6L52.9797 571.04ZM146.84 623.27L52.9797 678.94L55.0203 682.38L148.88 626.71L146.84 623.27ZM52 680.66L52 726.83L56 726.83L56 680.66L52 680.66ZM54 728.83L187 728.83L187 724.83L54 724.83L54 728.83ZM189 726.83L189 692.63L185 692.63L185 726.83L189 726.83ZM187 690.63L95.8 690.63L95.8 694.63L187 694.63L187 690.63ZM96.8368 694.34L188.037 639.05L185.963 635.63L94.7632 690.92L96.8368 694.34ZM189 637.34L189 612.64L185 612.64L185 637.34L189 637.34ZM188.037 610.93L96.8368 555.64L94.7631 559.06L185.963 614.35L188.037 610.93ZM95.8 559.35L187 559.35L187 555.35L95.8 555.35L95.8 559.35ZM189 557.35L189 523.15L185 523.15L185 557.35L189 557.35ZM187 521.15L54 521.15L54 525.15L187 525.15L187 521.15ZM81.17 367.285L83.17 367.285L83.17 365.285L81.17 365.285L81.17 367.285ZM54 367.285L54 365.285L52 365.285L52 367.285L54 367.285ZM54 507.885L52 507.885L52 509.885L54 509.885L54 507.885ZM187 507.885L187 509.885L189 509.885L189 507.885L187 507.885ZM187 367.285L189 367.285L189 365.285L187 365.285L187 367.285ZM159.83 367.285L159.83 365.285L157.83 365.285L157.83 367.285L159.83 367.285ZM159.83 473.685L159.83 475.685L161.83 475.685L161.83 473.685L159.83 473.685ZM132.85 473.685L130.85 473.685L130.85 475.685L132.85 475.685L132.85 473.685ZM132.85 367.285L134.85 367.285L134.85 365.285L132.85 365.285L132.85 367.285ZM108.15 367.285L108.15 365.285L106.15 365.285L106.15 367.285L108.15 367.285ZM108.15 473.685L108.15 475.685L110.15 475.685L110.15 473.685L108.15 473.685ZM81.17 473.685L79.17 473.685L79.17 475.685L81.17 475.685L81.17 473.685ZM81.17 365.285L54 365.285L54 369.285L81.17 369.285L81.17 365.285ZM52 367.285L52 507.885L56 507.885L56 367.285L52 367.285ZM54 509.885L187 509.885L187 505.885L54 505.885L54 509.885ZM189 507.885L189 367.285L185 367.285L185 507.885L189 507.885ZM187 365.285L159.83 365.285L159.83 369.285L187 369.285L187 365.285ZM157.83 367.285L157.83 473.685L161.83 473.685L161.83 367.285L157.83 367.285ZM159.83 471.685L132.85 471.685L132.85 475.685L159.83 475.685L159.83 471.685ZM134.85 473.685L134.85 367.285L130.85 367.285L130.85 473.685L134.85 473.685ZM132.85 365.285L108.15 365.285L108.15 369.285L132.85 369.285L132.85 365.285ZM106.15 367.285L106.15 473.685L110.15 473.685L110.15 367.285L106.15 367.285ZM108.15 471.685L81.17 471.685L81.17 475.685L108.15 475.685L108.15 471.685ZM83.17 473.685L83.17 367.285L79.17 367.285L79.17 473.685L83.17 473.685ZM54 217.628L52 217.628L52 219.628L54 219.628L54 217.628ZM153.94 217.628L155.285 219.109L159.115 215.628L153.94 215.628L153.94 217.628ZM54 308.449L52.6549 306.968L52 307.564L52 308.449L54 308.449ZM54 354.809L52 354.809L52 356.809L54 356.809L54 354.809ZM187 354.808L187 356.808L189 356.808L189 354.808L187 354.808ZM187 320.609L189 320.609L189 318.609L187 318.609L187 320.609ZM87.25 320.609L85.905 319.128L82.0746 322.609L87.25 322.609L87.25 320.609ZM187 229.979L188.345 231.459L189 230.864L189 229.979L187 229.979ZM187 183.429L189 183.429L189 181.429L187 181.429L187 183.429ZM54 183.429L54 181.429L52 181.429L52 183.429L54 183.429ZM54 219.628L153.94 219.628L153.94 215.628L54 215.628L54 219.628ZM152.595 216.148L52.6549 306.968L55.345 309.929L155.285 219.109L152.595 216.148ZM52 308.449L52 354.809L56 354.809L56 308.449L52 308.449ZM54 356.809L187 356.808L187 352.808L54 352.809L54 356.809ZM189 354.808L189 320.609L185 320.609L185 354.808L189 354.808ZM187 318.609L87.25 318.609L87.25 322.609L187 322.609L187 318.609ZM88.5949 322.089L188.345 231.459L185.655 228.498L85.905 319.128L88.5949 322.089ZM189 229.979L189 183.429L185 183.429L185 229.979L189 229.979ZM187 181.429L54 181.429L54 185.429L187 185.429L187 181.429ZM52 183.429L52 217.628L56 217.628L56 183.429L52 183.429ZM16 121.598L14.041 122.001L14.3694 123.598L16 123.598L16 121.598ZM38.42 121.598L38.42 123.598L40.8731 123.598L40.379 121.195L38.42 121.598ZM23.22 47.6884L25.179 47.2855L24.8505 45.6884L23.22 45.6884L23.22 47.6884ZM0.799966 47.6884L0.799966 45.6884L-1.6532 45.6884L-1.15904 48.0912L0.799966 47.6884ZM54 0.948363L54 -1.05164L52 -1.05164L52 0.948363L54 0.948363ZM54 35.1484L52 35.1484L52 37.1484L54 37.1484L54 35.1484ZM54 133.948L54 131.948L52 131.948L52 133.948L54 133.948ZM54 168.148L52 168.148L52 170.148L54 170.148L54 168.148ZM16 123.598L38.42 123.598L38.42 119.598L16 119.598L16 123.598ZM40.379 121.195L25.179 47.2855L21.261 48.0912L36.461 122.001L40.379 121.195ZM23.22 45.6884L0.799966 45.6884L0.799966 49.6884L23.22 49.6884L23.22 45.6884ZM-1.15904 48.0912L14.041 122.001L17.959 121.195L2.75897 47.2855L-1.15904 48.0912ZM120.31 -1.05164L54 -1.05164L54 2.94836L120.31 2.94836L120.31 -1.05164ZM52 0.948363L52 35.1484L56 35.1484L56 0.948363L52 0.948363ZM54 37.1484L120.31 37.1484L120.31 33.1484L54 33.1484L54 37.1484ZM120.31 37.1484C129.408 37.1484 138.744 38.4342 145.843 44.7422C152.907 51.0193 158.21 62.6898 158.21 84.5483L162.21 84.5483C162.21 62.1369 156.778 49.1074 148.5 41.752C140.256 34.4275 129.642 33.1484 120.31 33.1484L120.31 37.1484ZM158.21 84.5483C158.21 106.412 152.952 118.081 145.912 124.357C138.838 130.661 129.506 131.948 120.31 131.948L120.31 135.948C129.734 135.948 140.352 134.67 148.573 127.343C156.828 119.985 162.21 106.955 162.21 84.5483L158.21 84.5483ZM120.31 131.948L54 131.948L54 135.948L120.31 135.948L120.31 131.948ZM52 133.948L52 168.148L56 168.148L56 133.948L52 133.948ZM54 170.148L120.31 170.148L120.31 166.148L54 166.148L54 170.148ZM120.31 170.148C143.846 170.148 161.663 163.77 173.525 149.576C185.319 135.462 190.9 113.995 190.9 84.5483L186.9 84.5483C186.9 113.621 181.366 133.955 170.455 147.011C159.612 159.986 143.134 166.148 120.31 166.148L120.31 170.148ZM190.9 84.5483C190.9 55.1911 185.27 33.7271 173.453 19.5919C161.571 5.37737 143.757 -1.05164 120.31 -1.05164L120.31 2.94836C143.033 2.94836 159.514 9.15429 170.384 22.1573C181.32 35.2396 186.9 55.5756 186.9 84.5483L190.9 84.5483Z" fill="white"/>
</svg>
